<svg xmlns="http://www.w3.org/2000/svg" width="60.533" height="53.807" viewBox="0 0 60.533 53.807"><defs><style>.a{fill:#fff;}</style></defs><path class="a" d="M58.038,10.9a5.025,5.025,0,0,0-4.775-3.4H16.27a5.057,5.057,0,0,0-4.775,3.4L4.5,31.04v26.9a3.373,3.373,0,0,0,3.363,3.363h3.363a3.373,3.373,0,0,0,3.363-3.363V54.581H54.944v3.363a3.373,3.373,0,0,0,3.363,3.363H61.67a3.373,3.373,0,0,0,3.363-3.363V31.04ZM16.27,44.492a5.044,5.044,0,1,1,5.044-5.044A5.038,5.038,0,0,1,16.27,44.492Zm36.992,0a5.044,5.044,0,1,1,5.044-5.044A5.038,5.038,0,0,1,53.262,44.492ZM11.226,27.678,16.27,12.544H53.262l5.044,15.133Z" transform="translate(-4.5 -7.5)"/></svg>